<svg id="Capa_1" enable-background="new 0 0 512 512" height="512" viewBox="0 0 512 512" width="512" xmlns="http://www.w3.org/2000/svg"><g><g><path d="m244.697 198.382c6.707 0 12.163 5.456 12.163 12.163 0 4.143 3.358 7.5 7.5 7.5s7.5-3.357 7.5-7.5c0-12.376-8.323-22.838-19.663-26.102v-11.194c0-4.143-3.358-7.5-7.5-7.5s-7.5 3.357-7.5 7.5v11.194c-11.34 3.264-19.663 13.726-19.663 26.102 0 14.978 12.185 27.163 27.163 27.163.208 0 .415-.009.619-.025 6.42.323 11.544 5.647 11.544 12.146 0 6.707-5.456 12.163-12.163 12.163s-12.163-5.456-12.163-12.163c0-4.143-3.358-7.5-7.5-7.5s-7.5 3.357-7.5 7.5c0 12.376 8.323 22.838 19.663 26.102v11.194c0 4.143 3.358 7.5 7.5 7.5s7.5-3.357 7.5-7.5v-11.194c11.34-3.264 19.663-13.726 19.663-26.102 0-14.978-12.185-27.162-27.163-27.162-.208 0-.415.009-.619.025-6.42-.323-11.544-5.648-11.544-12.147.001-6.707 5.457-12.163 12.163-12.163z"/><path d="m389.324 34.56c-48.587 0-88.116 39.529-88.116 88.117s39.529 88.116 88.116 88.116 88.116-39.529 88.116-88.117-39.529-88.116-88.116-88.116zm0 161.233c-40.316 0-73.116-32.8-73.116-73.117 0-40.316 32.8-73.116 73.116-73.116s73.116 32.8 73.116 73.117c0 40.316-32.8 73.116-73.116 73.116z"/><path d="m389.324 245.353c67.644 0 122.676-55.033 122.676-122.677 0-24.356-7.125-47.895-20.603-68.068-2.301-3.445-6.958-4.371-10.403-2.07s-4.371 6.959-2.07 10.402c11.826 17.699 18.076 38.356 18.076 59.737 0 59.373-48.303 107.676-107.676 107.676s-107.676-48.304-107.676-107.677 48.303-107.676 107.676-107.676c25.675 0 50.538 9.185 70.008 25.862 3.145 2.693 7.88 2.327 10.575-.817 2.695-3.146 2.329-7.88-.817-10.575-22.187-19.004-50.515-29.47-79.766-29.47-67.644 0-122.677 55.032-122.677 122.677 0 2.468.082 4.917.226 7.35-7.21-1.588-14.634-2.418-22.177-2.418-56.562 0-102.579 46.017-102.579 102.579 0 36.641 19.323 68.839 48.302 86.985h-30.802c-9.649 0-17.5 7.851-17.5 17.5v30.871c0 3.722 1.177 7.169 3.165 10.008-1.987 2.834-3.165 6.273-3.165 9.992v14.971h-16.433v-1.716c0-9.649-7.851-17.5-17.5-17.5h-95.684c-6.893 0-12.5 5.607-12.5 12.5v105.701c0 6.893 5.607 12.5 12.5 12.5h353.85c15.237 0 27.633-12.396 27.633-27.634 0-15.236-12.396-27.633-27.633-27.633h-19.074v-20.318c0-3.719-1.176-7.16-3.165-9.993 1.988-2.839 3.165-6.286 3.165-10.007v-30.871c0-3.719-1.176-7.16-3.165-9.993 1.988-2.839 3.165-6.286 3.165-10.007v-30.871c0-9.649-7.851-17.5-17.5-17.5h-30.77c19.325-12.063 34.578-30.475 42.48-52.932 1.375-3.907-.678-8.189-4.585-9.564-3.91-1.373-8.19.678-9.564 4.586-11.177 31.768-39.579 54.069-72.491 57.91h-20.309c-43.521-5.052-77.418-42.132-77.418-86.986 0-48.291 39.288-87.578 87.579-87.578 8.396 0 16.502 1.188 24.18 3.372 10.917 56.536 60.769 99.372 120.446 99.372zm-331.344 251.647h-42.98v-100.701h42.98zm99.139-111.456c0-1.379 1.122-2.5 2.5-2.5h170.157c1.378 0 2.5 1.121 2.5 2.5v30.871c0 1.379-1.122 2.5-2.5 2.5l-78.691-.021c-7.501 0-14.854-1.372-21.853-4.079l-23.817-9.211c-8.731-3.377-17.904-5.089-27.263-5.089h-21.032v-14.971zm-46.433 13.255v95.701c0 1.379-1.122 2.5-2.5 2.5h-35.206v-100.701h35.206c1.378 0 2.5 1.121 2.5 2.5zm268.297 85.567c0 6.966-5.667 12.634-12.633 12.634h-240.864c.118-.819.2-1.649.2-2.5v-78.985h52.465c7.501 0 14.854 1.372 21.853 4.079l23.817 9.211c8.732 3.377 17.904 5.089 27.263 5.089h17.276v.021h14.282c6.1.226 10.996 5.245 10.996 11.398 0 6.297-5.123 11.42-11.42 11.42h-43.84c-4.142 0-7.5 3.357-7.5 7.5s3.358 7.5 7.5 7.5h127.972c6.966 0 12.633 5.667 12.633 12.633zm-72.943-27.633c1.664-3.458 2.598-7.332 2.598-11.42 0-4.08-.93-7.946-2.589-11.398h23.727c1.378 0 2.5 1.121 2.5 2.5v20.318zm26.236-122.06v30.871c0 1.379-1.122 2.5-2.5 2.5h-170.157c-1.378 0-2.5-1.121-2.5-2.5v-30.871c0-1.379 1.122-2.5 2.5-2.5h170.157c1.378 0 2.5 1.121 2.5 2.5z"/><path d="m396.824 119.431v-20.971c0-4.143-3.358-7.5-7.5-7.5s-7.5 3.357-7.5 7.5v24.216c0 2.07.856 4.049 2.365 5.467l13.236 12.433c1.448 1.359 3.292 2.033 5.133 2.033 1.999 0 3.992-.794 5.468-2.365 2.836-3.02 2.687-7.766-.332-10.602z"/><path d="m389.316 75.29c4.14 0 7.496-3.356 7.496-7.496 0-4.14-3.356-7.496-7.496-7.496s-7.496 3.356-7.496 7.496c0 4.14 3.356 7.496 7.496 7.496z"/><path d="m389.316 170.063c-4.14 0-7.496 3.356-7.496 7.496s3.356 7.496 7.496 7.496 7.496-3.356 7.496-7.496c0-4.139-3.356-7.496-7.496-7.496z"/><path d="m422.823 78.568c-2.927 2.927-2.927 7.674 0 10.601 2.927 2.927 7.674 2.927 10.601 0 2.927-2.927 2.927-7.674 0-10.601s-7.673-2.927-10.601 0z"/><path d="m355.808 156.184c-2.927-2.927-7.674-2.927-10.601 0s-2.927 7.674 0 10.601 7.674 2.927 10.601 0c2.928-2.927 2.928-7.673 0-10.601z"/><circle cx="444.199" cy="122.677" r="7.496"/><path d="m334.433 115.181c-4.14 0-7.496 3.356-7.496 7.496s3.356 7.496 7.496 7.496c4.14 0 7.496-3.356 7.496-7.496s-3.356-7.496-7.496-7.496z"/><circle cx="428.124" cy="161.485" r="7.496"/><path d="m355.808 78.568c-2.927-2.927-7.674-2.927-10.601 0s-2.927 7.674 0 10.601c2.927 2.927 7.674 2.927 10.601 0 2.928-2.927 2.928-7.673 0-10.601z"/></g></g></svg>