<svg id="Layer_1" data-name="Layer 1" xmlns="http://www.w3.org/2000/svg" viewBox="0 0 400 300" width="406" height="306" class="illustration styles_illustrationTablet__1DWOa"><path d="M60.8,120.82S12.18,230.63,140.19,232.17s186.52-15.32,187.1-71.2S281.77,53,201.41,52.38,77.6,72.81,60.8,120.82Z" fill="#e6e6e6" opacity="0.3"></path><path d="M228.54,90.49h9.91a7,7,0,0,1,7,7.37l-6.28,120.62a8.09,8.09,0,0,1-8.08,7.67h-7.57Z" fill="#24285b"></path><polygon points="269.27 140.98 270.31 162.93 291.22 171.91 303.66 160.34 302.27 148.24 283.44 128.37 269.27 140.98" fill="#f4a28c"></polygon><polygon points="269.27 140.98 270.31 162.93 291.22 171.91 303.66 160.34 302.27 148.24 283.44 128.37 269.27 140.98" opacity="0.09"></polygon><path d="M300,114s-9.65-11.43-17.63-16.77c-15.72-10.54-21.42.69-20.73,6.91s19.17,25.23,19.17,25.23Z" fill="#f4a28c"></path><path d="M143.57,78.2h0a14.84,14.84,0,0,0-11.49,15l4.78,130a15.06,15.06,0,0,0,12,14.2h0a154.48,154.48,0,0,0,63.09,0h0a15.06,15.06,0,0,0,12-14.2l4.78-130a14.84,14.84,0,0,0-11.49-15h0A164.31,164.31,0,0,0,143.57,78.2Z" fill="#e6e6e6"></path><rect x="146.34" y="96.43" width="68.67" height="45.23" fill="#fff"></rect><path d="M132.08,93.2l-2.76.44a5.37,5.37,0,0,0-4.51,5.6l7.05,123.13a4,4,0,0,0,4,3.78h1.63Z" fill="#24285b"></path><rect x="144.57" y="157.33" width="18.25" height="9" fill="#fff"></rect><rect x="170.6" y="157.33" width="18.25" height="9" fill="#fff"></rect><rect x="196.76" y="157.33" width="18.25" height="9" fill="#fff"></rect><rect x="144.57" y="176.16" width="18.25" height="9" fill="#fff"></rect><rect x="170.6" y="176.16" width="18.25" height="9" fill="#fff"></rect><rect x="196.76" y="176.16" width="18.25" height="9" fill="#fff"></rect><rect x="144.57" y="194.92" width="18.25" height="9" fill="#fff"></rect><rect x="170.6" y="194.92" width="18.25" height="9" fill="#fff"></rect><rect x="196.76" y="194.92" width="18.25" height="9" fill="#fff"></rect><rect x="144.57" y="213.5" width="18.25" height="9" fill="#97197d"></rect><rect x="170.6" y="213.5" width="18.25" height="9" fill="#c1c1c1"></rect><rect x="196.76" y="213.5" width="18.25" height="9" fill="#97197d"></rect><path d="M231.51,219h0a1,1,0,0,1-1-1l3-124.8a1,1,0,0,1,1-1,1,1,0,0,1,1,1l-3,124.8A1,1,0,0,1,231.51,219Z" fill="#97197d"></path><rect x="151.32" y="84.39" width="58.76" height="3.14" fill="#c1c1c1"></rect><polygon points="157.28 87.53 157.28 33.92 163.3 37.58 169.15 32.94 174.7 37.62 181.76 32.94 187.37 38.1 192.96 32.94 197.67 37.96 204.06 33.92 204.06 87.53 157.28 87.53" fill="#97197d"></polygon><polygon points="216.28 90.7 194.28 76.94 166.78 126.99 241.54 174.68 243.62 134.56 216.28 90.7" opacity="0.09"></polygon><rect x="194.06" y="85.64" width="96.82" height="62.55" transform="translate(90.94 -105.57) rotate(30)" fill="#ffd200"></rect><rect x="244.31" y="106.91" width="43.35" height="10.33" transform="matrix(0.87, 0.5, -0.5, 0.87, 91.68, -117.97)" fill="#fff"></rect><rect x="199.35" y="110.85" width="23.14" height="10.33" rx="3.82" transform="translate(86.26 -89.92) rotate(30)" fill="#fff" opacity="0.46"></rect><rect x="222.54" y="132.24" width="50.85" height="10.33" rx="3.82" transform="translate(101.92 -105.58) rotate(30)" fill="#fff" opacity="0.46"></rect><path d="M268.12,189.67s-18.33-17.73-17.19-36.84c.52-8.78,11.83-12.17,17-5.05l.2.29c6.74,9.57,6.11,19.53,20.85,15.55s-2.42-26.23-2.42-26.23L300,114s16.47,22.86,20.62,42.5,0,40.37,0,40.37l-37.58,7.86Z" fill="#f4a28c"></path><polygon points="272.73 199.21 321.81 188.69 340.46 251.74 279.99 260.75 272.73 199.21" fill="#97197d"></polygon><circle cx="223.12" cy="87.92" r="6.84" fill="#fff" opacity="0.3"></circle><circle cx="231.42" cy="92.19" r="6.84" fill="#fff" opacity="0.3"></circle></svg>